<?xml version="1.0" standalone="no"?>
<!DOCTYPE svg PUBLIC "-//W3C//DTD SVG 1.1//EN" "http://www.w3.org/Graphics/SVG/1.1/DTD/svg11.dtd">
<svg xmlns="http://www.w3.org/2000/svg" xmlns:xlink="http://www.w3.org/1999/xlink" width="375" zoomAndPan="magnify" viewBox="0 0 375 374.999991" height="375" preserveAspectRatio="xMidYMid meet" version="1.0"><defs><g/></defs><rect x="-37.5" width="450" fill="#ffffff" y="-37.499999" height="449.999989" fill-opacity="1"/><rect x="-37.5" width="450" fill="#4f1964" y="-37.499999" height="449.999989" fill-opacity="1"/><g fill="#f6f1e8" fill-opacity="1"><g transform="translate(54.419736, 202.874987)"><g><path d="M 8.828125 0.6875 C 7.328125 0.6875 5.984375 0.507812 4.796875 0.15625 C 3.609375 -0.1875 2.515625 -0.617188 1.515625 -1.140625 L 1.546875 -6.578125 L 2.015625 -6.578125 L 3.5625 -3.84375 C 4.238281 -2.625 4.976562 -1.71875 5.78125 -1.125 C 6.59375 -0.53125 7.625 -0.234375 8.875 -0.234375 C 10.332031 -0.234375 11.507812 -0.554688 12.40625 -1.203125 C 13.3125 -1.859375 13.765625 -2.738281 13.765625 -3.84375 C 13.765625 -4.84375 13.441406 -5.660156 12.796875 -6.296875 C 12.160156 -6.941406 10.972656 -7.523438 9.234375 -8.046875 L 7.3125 -8.640625 C 5.457031 -9.191406 3.992188 -10.046875 2.921875 -11.203125 C 1.859375 -12.359375 1.328125 -13.773438 1.328125 -15.453125 C 1.328125 -17.460938 2.117188 -19.164062 3.703125 -20.5625 C 5.285156 -21.96875 7.554688 -22.671875 10.515625 -22.671875 C 11.703125 -22.671875 12.820312 -22.539062 13.875 -22.28125 C 14.925781 -22.03125 15.941406 -21.644531 16.921875 -21.125 L 16.640625 -16.1875 L 16.1875 -16.1875 L 14.578125 -19.015625 C 14.003906 -20.023438 13.4375 -20.734375 12.875 -21.140625 C 12.3125 -21.554688 11.460938 -21.765625 10.328125 -21.765625 C 9.296875 -21.765625 8.320312 -21.472656 7.40625 -20.890625 C 6.488281 -20.316406 6.03125 -19.492188 6.03125 -18.421875 C 6.03125 -17.390625 6.414062 -16.566406 7.1875 -15.953125 C 7.96875 -15.347656 9.125 -14.785156 10.65625 -14.265625 L 12.703125 -13.671875 C 14.898438 -13.003906 16.472656 -12.082031 17.421875 -10.90625 C 18.367188 -9.726562 18.84375 -8.316406 18.84375 -6.671875 C 18.84375 -4.453125 17.960938 -2.671875 16.203125 -1.328125 C 14.453125 0.015625 11.992188 0.6875 8.828125 0.6875 Z M 8.828125 0.6875 "/></g></g></g><g fill="#f6f1e8" fill-opacity="1"><g transform="translate(72.243314, 202.874987)"><g><path d="M 1.046875 0 L 1.046875 -0.453125 L 1.59375 -0.640625 C 2.695312 -1.003906 3.25 -1.765625 3.25 -2.921875 L 3.25 -27.34375 C 3.25 -27.976562 3.140625 -28.445312 2.921875 -28.75 C 2.710938 -29.0625 2.300781 -29.289062 1.6875 -29.4375 L 1 -29.625 L 1 -30.078125 L 9.046875 -32.046875 L 9.78125 -31.640625 L 9.59375 -25.1875 L 9.59375 -19.46875 C 10.664062 -20.351562 11.816406 -21.109375 13.046875 -21.734375 C 14.285156 -22.359375 15.648438 -22.671875 17.140625 -22.671875 C 19.117188 -22.671875 20.695312 -22.109375 21.875 -20.984375 C 23.050781 -19.859375 23.640625 -18.117188 23.640625 -15.765625 L 23.640625 -2.875 C 23.640625 -2.269531 23.757812 -1.785156 24 -1.421875 C 24.25 -1.054688 24.675781 -0.78125 25.28125 -0.59375 L 25.640625 -0.453125 L 25.640625 0 L 14.953125 0 L 14.953125 -0.453125 L 15.5 -0.59375 C 16.59375 -0.957031 17.140625 -1.734375 17.140625 -2.921875 L 17.140625 -17.28125 C 17.140625 -18.5 16.929688 -19.335938 16.515625 -19.796875 C 16.109375 -20.253906 15.390625 -20.484375 14.359375 -20.484375 C 13.679688 -20.484375 12.945312 -20.351562 12.15625 -20.09375 C 11.363281 -19.832031 10.554688 -19.382812 9.734375 -18.75 L 9.734375 -2.828125 C 9.734375 -1.640625 10.285156 -0.878906 11.390625 -0.546875 L 11.75 -0.453125 L 11.75 0 Z M 1.046875 0 "/></g></g></g><g fill="#f6f1e8" fill-opacity="1"><g transform="translate(97.379527, 202.874987)"><g><path d="M 12.390625 -22.671875 C 14.367188 -22.671875 16.054688 -22.265625 17.453125 -21.453125 C 18.859375 -20.648438 19.9375 -19.554688 20.6875 -18.171875 C 21.4375 -16.785156 21.8125 -15.207031 21.8125 -13.4375 C 21.8125 -13.101562 21.796875 -12.757812 21.765625 -12.40625 C 21.734375 -12.0625 21.671875 -11.75 21.578125 -11.46875 L 7.953125 -11.46875 C 7.984375 -8.175781 8.566406 -5.804688 9.703125 -4.359375 C 10.847656 -2.910156 12.550781 -2.1875 14.8125 -2.1875 C 16.332031 -2.1875 17.566406 -2.429688 18.515625 -2.921875 C 19.460938 -3.410156 20.347656 -4.128906 21.171875 -5.078125 L 21.625 -4.65625 C 20.675781 -2.988281 19.414062 -1.679688 17.84375 -0.734375 C 16.28125 0.210938 14.398438 0.6875 12.203125 0.6875 C 10.035156 0.6875 8.113281 0.222656 6.4375 -0.703125 C 4.769531 -1.640625 3.460938 -2.972656 2.515625 -4.703125 C 1.566406 -6.441406 1.09375 -8.515625 1.09375 -10.921875 C 1.09375 -13.421875 1.640625 -15.546875 2.734375 -17.296875 C 3.835938 -19.054688 5.25 -20.390625 6.96875 -21.296875 C 8.695312 -22.210938 10.503906 -22.671875 12.390625 -22.671875 Z M 12.25 -21.765625 C 11.363281 -21.765625 10.609375 -21.492188 9.984375 -20.953125 C 9.359375 -20.421875 8.867188 -19.476562 8.515625 -18.125 C 8.171875 -16.769531 7.984375 -14.859375 7.953125 -12.390625 L 15.765625 -12.390625 C 16.078125 -15.710938 15.957031 -18.101562 15.40625 -19.5625 C 14.851562 -21.03125 13.800781 -21.765625 12.25 -21.765625 Z M 12.25 -21.765625 "/></g></g></g><g fill="#f6f1e8" fill-opacity="1"><g transform="translate(119.179422, 202.874987)"><g/></g></g><g fill="#feda15" fill-opacity="1"><g transform="translate(127.779107, 202.874987)"><g><path d="M 1.046875 0 L 1.046875 -0.453125 L 1.59375 -0.640625 C 2.695312 -1.003906 3.25 -1.765625 3.25 -2.921875 L 3.25 -27.390625 C 3.25 -27.992188 3.125 -28.457031 2.875 -28.78125 C 2.632812 -29.101562 2.207031 -29.335938 1.59375 -29.484375 L 1 -29.625 L 1 -30.078125 L 9.375 -32.046875 L 9.921875 -31.640625 L 9.734375 -25.234375 L 9.734375 -9.59375 C 9.734375 -8.46875 9.738281 -7.347656 9.75 -6.234375 C 9.769531 -5.128906 9.78125 -4.023438 9.78125 -2.921875 C 9.78125 -2.316406 9.898438 -1.820312 10.140625 -1.4375 C 10.390625 -1.0625 10.804688 -0.78125 11.390625 -0.59375 L 11.984375 -0.453125 L 11.984375 0 Z M 1.046875 0 "/></g></g></g><g fill="#feda15" fill-opacity="1"><g transform="translate(139.47863, 202.874987)"><g><path d="M 12.390625 -22.671875 C 14.367188 -22.671875 16.054688 -22.265625 17.453125 -21.453125 C 18.859375 -20.648438 19.9375 -19.554688 20.6875 -18.171875 C 21.4375 -16.785156 21.8125 -15.207031 21.8125 -13.4375 C 21.8125 -13.101562 21.796875 -12.757812 21.765625 -12.40625 C 21.734375 -12.0625 21.671875 -11.75 21.578125 -11.46875 L 7.953125 -11.46875 C 7.984375 -8.175781 8.566406 -5.804688 9.703125 -4.359375 C 10.847656 -2.910156 12.550781 -2.1875 14.8125 -2.1875 C 16.332031 -2.1875 17.566406 -2.429688 18.515625 -2.921875 C 19.460938 -3.410156 20.347656 -4.128906 21.171875 -5.078125 L 21.625 -4.65625 C 20.675781 -2.988281 19.414062 -1.679688 17.84375 -0.734375 C 16.28125 0.210938 14.398438 0.6875 12.203125 0.6875 C 10.035156 0.6875 8.113281 0.222656 6.4375 -0.703125 C 4.769531 -1.640625 3.460938 -2.972656 2.515625 -4.703125 C 1.566406 -6.441406 1.09375 -8.515625 1.09375 -10.921875 C 1.09375 -13.421875 1.640625 -15.546875 2.734375 -17.296875 C 3.835938 -19.054688 5.25 -20.390625 6.96875 -21.296875 C 8.695312 -22.210938 10.503906 -22.671875 12.390625 -22.671875 Z M 12.25 -21.765625 C 11.363281 -21.765625 10.609375 -21.492188 9.984375 -20.953125 C 9.359375 -20.421875 8.867188 -19.476562 8.515625 -18.125 C 8.171875 -16.769531 7.984375 -14.859375 7.953125 -12.390625 L 15.765625 -12.390625 C 16.078125 -15.710938 15.957031 -18.101562 15.40625 -19.5625 C 14.851562 -21.03125 13.800781 -21.765625 12.25 -21.765625 Z M 12.25 -21.765625 "/></g></g></g><g fill="#feda15" fill-opacity="1"><g transform="translate(161.095671, 202.874987)"><g><path d="M 7.59375 0.6875 C 5.820312 0.6875 4.332031 0.1875 3.125 -0.8125 C 1.925781 -1.820312 1.328125 -3.273438 1.328125 -5.171875 C 1.328125 -6.597656 2.054688 -7.910156 3.515625 -9.109375 C 4.984375 -10.316406 7.285156 -11.226562 10.421875 -11.84375 C 10.910156 -11.9375 11.457031 -12.035156 12.0625 -12.140625 C 12.675781 -12.242188 13.316406 -12.359375 13.984375 -12.484375 L 13.984375 -16.09375 C 13.984375 -18.164062 13.734375 -19.617188 13.234375 -20.453125 C 12.734375 -21.296875 11.945312 -21.71875 10.875 -21.71875 C 10.144531 -21.71875 9.566406 -21.476562 9.140625 -21 C 8.710938 -20.53125 8.441406 -19.71875 8.328125 -18.5625 L 8.234375 -18.0625 C 8.171875 -16.75 7.847656 -15.785156 7.265625 -15.171875 C 6.691406 -14.566406 5.976562 -14.265625 5.125 -14.265625 C 4.332031 -14.265625 3.675781 -14.507812 3.15625 -15 C 2.632812 -15.488281 2.375 -16.144531 2.375 -16.96875 C 2.375 -18.21875 2.804688 -19.265625 3.671875 -20.109375 C 4.546875 -20.960938 5.695312 -21.601562 7.125 -22.03125 C 8.5625 -22.457031 10.117188 -22.671875 11.796875 -22.671875 C 14.503906 -22.671875 16.597656 -22.007812 18.078125 -20.6875 C 19.554688 -19.363281 20.296875 -17.207031 20.296875 -14.21875 L 20.296875 -4.109375 C 20.296875 -2.742188 20.9375 -2.0625 22.21875 -2.0625 L 23.21875 -2.0625 L 23.640625 -1.6875 C 23.054688 -0.957031 22.421875 -0.394531 21.734375 0 C 21.046875 0.394531 20.082031 0.59375 18.84375 0.59375 C 17.5 0.59375 16.4375 0.28125 15.65625 -0.34375 C 14.882812 -0.96875 14.375 -1.796875 14.125 -2.828125 C 13.207031 -1.859375 12.269531 -1.03125 11.3125 -0.34375 C 10.351562 0.34375 9.113281 0.6875 7.59375 0.6875 Z M 10.375 -2.109375 C 10.988281 -2.109375 11.5625 -2.25 12.09375 -2.53125 C 12.625 -2.820312 13.253906 -3.273438 13.984375 -3.890625 L 13.984375 -11.5625 C 13.679688 -11.5 13.378906 -11.4375 13.078125 -11.375 C 12.773438 -11.320312 12.425781 -11.265625 12.03125 -11.203125 C 10.625 -10.835938 9.5 -10.21875 8.65625 -9.34375 C 7.820312 -8.476562 7.40625 -7.316406 7.40625 -5.859375 C 7.40625 -4.609375 7.691406 -3.671875 8.265625 -3.046875 C 8.847656 -2.421875 9.550781 -2.109375 10.375 -2.109375 Z M 10.375 -2.109375 "/></g></g></g><g fill="#feda15" fill-opacity="1"><g transform="translate(183.398304, 202.874987)"><g><path d="M 10.609375 0.6875 C 8.804688 0.6875 7.1875 0.285156 5.75 -0.515625 C 4.320312 -1.328125 3.1875 -2.578125 2.34375 -4.265625 C 1.507812 -5.960938 1.09375 -8.140625 1.09375 -10.796875 C 1.09375 -13.472656 1.566406 -15.6875 2.515625 -17.4375 C 3.460938 -19.195312 4.710938 -20.507812 6.265625 -21.375 C 7.816406 -22.238281 9.507812 -22.671875 11.34375 -22.671875 C 12.40625 -22.671875 13.421875 -22.5625 14.390625 -22.34375 C 15.367188 -22.132812 16.238281 -21.816406 17 -21.390625 L 17 -27.34375 C 17 -27.976562 16.898438 -28.445312 16.703125 -28.75 C 16.503906 -29.0625 16.085938 -29.273438 15.453125 -29.390625 L 14.578125 -29.578125 L 14.578125 -30.03125 L 22.90625 -32.046875 L 23.40625 -31.640625 L 23.21875 -25.234375 L 23.21875 -2.875 C 23.21875 -2.269531 23.320312 -1.773438 23.53125 -1.390625 C 23.75 -1.015625 24.148438 -0.75 24.734375 -0.59375 L 25.140625 -0.453125 L 25.140625 0 L 17.328125 0.5 L 16.921875 -1.140625 C 16.097656 -0.585938 15.160156 -0.144531 14.109375 0.1875 C 13.054688 0.519531 11.890625 0.6875 10.609375 0.6875 Z M 13.265625 -1 C 14.535156 -1 15.707031 -1.382812 16.78125 -2.15625 L 16.78125 -20.296875 C 15.65625 -21.023438 14.492188 -21.390625 13.296875 -21.390625 C 11.835938 -21.390625 10.585938 -20.546875 9.546875 -18.859375 C 8.515625 -17.171875 8 -14.507812 8 -10.875 C 8 -7.25 8.484375 -4.695312 9.453125 -3.21875 C 10.429688 -1.738281 11.703125 -1 13.265625 -1 Z M 13.265625 -1 "/></g></g></g><g fill="#feda15" fill-opacity="1"><g transform="translate(208.260306, 202.874987)"><g><path d="M 8.828125 0.6875 C 7.328125 0.6875 5.984375 0.507812 4.796875 0.15625 C 3.609375 -0.1875 2.515625 -0.617188 1.515625 -1.140625 L 1.546875 -6.578125 L 2.015625 -6.578125 L 3.5625 -3.84375 C 4.238281 -2.625 4.976562 -1.71875 5.78125 -1.125 C 6.59375 -0.53125 7.625 -0.234375 8.875 -0.234375 C 10.332031 -0.234375 11.507812 -0.554688 12.40625 -1.203125 C 13.3125 -1.859375 13.765625 -2.738281 13.765625 -3.84375 C 13.765625 -4.84375 13.441406 -5.660156 12.796875 -6.296875 C 12.160156 -6.941406 10.972656 -7.523438 9.234375 -8.046875 L 7.3125 -8.640625 C 5.457031 -9.191406 3.992188 -10.046875 2.921875 -11.203125 C 1.859375 -12.359375 1.328125 -13.773438 1.328125 -15.453125 C 1.328125 -17.460938 2.117188 -19.164062 3.703125 -20.5625 C 5.285156 -21.96875 7.554688 -22.671875 10.515625 -22.671875 C 11.703125 -22.671875 12.820312 -22.539062 13.875 -22.28125 C 14.925781 -22.03125 15.941406 -21.644531 16.921875 -21.125 L 16.640625 -16.1875 L 16.1875 -16.1875 L 14.578125 -19.015625 C 14.003906 -20.023438 13.4375 -20.734375 12.875 -21.140625 C 12.3125 -21.554688 11.460938 -21.765625 10.328125 -21.765625 C 9.296875 -21.765625 8.320312 -21.472656 7.40625 -20.890625 C 6.488281 -20.316406 6.03125 -19.492188 6.03125 -18.421875 C 6.03125 -17.390625 6.414062 -16.566406 7.1875 -15.953125 C 7.96875 -15.347656 9.125 -14.785156 10.65625 -14.265625 L 12.703125 -13.671875 C 14.898438 -13.003906 16.472656 -12.082031 17.421875 -10.90625 C 18.367188 -9.726562 18.84375 -8.316406 18.84375 -6.671875 C 18.84375 -4.453125 17.960938 -2.671875 16.203125 -1.328125 C 14.453125 0.015625 11.992188 0.6875 8.828125 0.6875 Z M 8.828125 0.6875 "/></g></g></g><g fill="#329ac6" fill-opacity="1"><g transform="translate(226.825979, 202.874987)"><g/></g></g><g fill="#f6f1e8" fill-opacity="1"><g transform="translate(235.427541, 202.874987)"><g><path d="M 1.046875 0 L 1.046875 -0.453125 L 1.59375 -0.640625 C 2.695312 -1.003906 3.25 -1.765625 3.25 -2.921875 L 3.25 -27.34375 C 3.25 -27.976562 3.140625 -28.445312 2.921875 -28.75 C 2.710938 -29.0625 2.300781 -29.289062 1.6875 -29.4375 L 1 -29.625 L 1 -30.078125 L 9.046875 -32.046875 L 9.78125 -31.640625 L 9.59375 -25.1875 L 9.59375 -19.46875 C 10.664062 -20.351562 11.816406 -21.109375 13.046875 -21.734375 C 14.285156 -22.359375 15.648438 -22.671875 17.140625 -22.671875 C 19.117188 -22.671875 20.695312 -22.109375 21.875 -20.984375 C 23.050781 -19.859375 23.640625 -18.117188 23.640625 -15.765625 L 23.640625 -2.875 C 23.640625 -2.269531 23.757812 -1.785156 24 -1.421875 C 24.25 -1.054688 24.675781 -0.78125 25.28125 -0.59375 L 25.640625 -0.453125 L 25.640625 0 L 14.953125 0 L 14.953125 -0.453125 L 15.5 -0.59375 C 16.59375 -0.957031 17.140625 -1.734375 17.140625 -2.921875 L 17.140625 -17.28125 C 17.140625 -18.5 16.929688 -19.335938 16.515625 -19.796875 C 16.109375 -20.253906 15.390625 -20.484375 14.359375 -20.484375 C 13.679688 -20.484375 12.945312 -20.351562 12.15625 -20.09375 C 11.363281 -19.832031 10.554688 -19.382812 9.734375 -18.75 L 9.734375 -2.828125 C 9.734375 -1.640625 10.285156 -0.878906 11.390625 -0.546875 L 11.75 -0.453125 L 11.75 0 Z M 1.046875 0 "/></g></g></g><g fill="#f6f1e8" fill-opacity="1"><g transform="translate(260.563755, 202.874987)"><g><path d="M 12.390625 -22.671875 C 14.367188 -22.671875 16.054688 -22.265625 17.453125 -21.453125 C 18.859375 -20.648438 19.9375 -19.554688 20.6875 -18.171875 C 21.4375 -16.785156 21.8125 -15.207031 21.8125 -13.4375 C 21.8125 -13.101562 21.796875 -12.757812 21.765625 -12.40625 C 21.734375 -12.0625 21.671875 -11.75 21.578125 -11.46875 L 7.953125 -11.46875 C 7.984375 -8.175781 8.566406 -5.804688 9.703125 -4.359375 C 10.847656 -2.910156 12.550781 -2.1875 14.8125 -2.1875 C 16.332031 -2.1875 17.566406 -2.429688 18.515625 -2.921875 C 19.460938 -3.410156 20.347656 -4.128906 21.171875 -5.078125 L 21.625 -4.65625 C 20.675781 -2.988281 19.414062 -1.679688 17.84375 -0.734375 C 16.28125 0.210938 14.398438 0.6875 12.203125 0.6875 C 10.035156 0.6875 8.113281 0.222656 6.4375 -0.703125 C 4.769531 -1.640625 3.460938 -2.972656 2.515625 -4.703125 C 1.566406 -6.441406 1.09375 -8.515625 1.09375 -10.921875 C 1.09375 -13.421875 1.640625 -15.546875 2.734375 -17.296875 C 3.835938 -19.054688 5.25 -20.390625 6.96875 -21.296875 C 8.695312 -22.210938 10.503906 -22.671875 12.390625 -22.671875 Z M 12.25 -21.765625 C 11.363281 -21.765625 10.609375 -21.492188 9.984375 -20.953125 C 9.359375 -20.421875 8.867188 -19.476562 8.515625 -18.125 C 8.171875 -16.769531 7.984375 -14.859375 7.953125 -12.390625 L 15.765625 -12.390625 C 16.078125 -15.710938 15.957031 -18.101562 15.40625 -19.5625 C 14.851562 -21.03125 13.800781 -21.765625 12.25 -21.765625 Z M 12.25 -21.765625 "/></g></g></g><g fill="#f6f1e8" fill-opacity="1"><g transform="translate(282.363649, 202.874987)"><g><path d="M 0.921875 0 L 0.921875 -0.453125 L 1.59375 -0.640625 C 2.207031 -0.828125 2.628906 -1.101562 2.859375 -1.46875 C 3.085938 -1.832031 3.203125 -2.300781 3.203125 -2.875 L 3.203125 -17.1875 C 3.203125 -17.863281 3.085938 -18.359375 2.859375 -18.671875 C 2.628906 -18.992188 2.207031 -19.21875 1.59375 -19.34375 L 0.921875 -19.515625 L 0.921875 -19.984375 L 8.78125 -22.625 L 9.234375 -22.171875 L 9.640625 -18.234375 L 9.640625 -17.875 C 10.066406 -18.726562 10.625 -19.515625 11.3125 -20.234375 C 12 -20.953125 12.757812 -21.535156 13.59375 -21.984375 C 14.4375 -22.441406 15.269531 -22.671875 16.09375 -22.671875 C 17.25 -22.671875 18.128906 -22.347656 18.734375 -21.703125 C 19.347656 -21.066406 19.65625 -20.265625 19.65625 -19.296875 C 19.65625 -18.253906 19.359375 -17.453125 18.765625 -16.890625 C 18.171875 -16.328125 17.460938 -16.046875 16.640625 -16.046875 C 15.359375 -16.046875 14.234375 -16.6875 13.265625 -17.96875 L 13.171875 -18.0625 C 12.859375 -18.488281 12.503906 -18.722656 12.109375 -18.765625 C 11.710938 -18.816406 11.347656 -18.628906 11.015625 -18.203125 C 10.710938 -17.921875 10.460938 -17.585938 10.265625 -17.203125 C 10.066406 -16.828125 9.875 -16.394531 9.6875 -15.90625 L 9.6875 -3.15625 C 9.6875 -1.9375 10.222656 -1.175781 11.296875 -0.875 L 12.75 -0.453125 L 12.75 0 Z M 0.921875 0 "/></g></g></g><g fill="#f6f1e8" fill-opacity="1"><g transform="translate(300.415742, 202.874987)"><g><path d="M 12.390625 -22.671875 C 14.367188 -22.671875 16.054688 -22.265625 17.453125 -21.453125 C 18.859375 -20.648438 19.9375 -19.554688 20.6875 -18.171875 C 21.4375 -16.785156 21.8125 -15.207031 21.8125 -13.4375 C 21.8125 -13.101562 21.796875 -12.757812 21.765625 -12.40625 C 21.734375 -12.0625 21.671875 -11.75 21.578125 -11.46875 L 7.953125 -11.46875 C 7.984375 -8.175781 8.566406 -5.804688 9.703125 -4.359375 C 10.847656 -2.910156 12.550781 -2.1875 14.8125 -2.1875 C 16.332031 -2.1875 17.566406 -2.429688 18.515625 -2.921875 C 19.460938 -3.410156 20.347656 -4.128906 21.171875 -5.078125 L 21.625 -4.65625 C 20.675781 -2.988281 19.414062 -1.679688 17.84375 -0.734375 C 16.28125 0.210938 14.398438 0.6875 12.203125 0.6875 C 10.035156 0.6875 8.113281 0.222656 6.4375 -0.703125 C 4.769531 -1.640625 3.460938 -2.972656 2.515625 -4.703125 C 1.566406 -6.441406 1.09375 -8.515625 1.09375 -10.921875 C 1.09375 -13.421875 1.640625 -15.546875 2.734375 -17.296875 C 3.835938 -19.054688 5.25 -20.390625 6.96875 -21.296875 C 8.695312 -22.210938 10.503906 -22.671875 12.390625 -22.671875 Z M 12.25 -21.765625 C 11.363281 -21.765625 10.609375 -21.492188 9.984375 -20.953125 C 9.359375 -20.421875 8.867188 -19.476562 8.515625 -18.125 C 8.171875 -16.769531 7.984375 -14.859375 7.953125 -12.390625 L 15.765625 -12.390625 C 16.078125 -15.710938 15.957031 -18.101562 15.40625 -19.5625 C 14.851562 -21.03125 13.800781 -21.765625 12.25 -21.765625 Z M 12.25 -21.765625 "/></g></g></g><g fill="#f6f1e8" fill-opacity="1"><g transform="translate(321.621379, 202.874987)"><g><path d="M 6.859375 0.6875 C 5.765625 0.6875 4.832031 0.304688 4.0625 -0.453125 C 3.300781 -1.210938 2.921875 -2.128906 2.921875 -3.203125 C 2.921875 -4.265625 3.300781 -5.191406 4.0625 -5.984375 C 4.832031 -6.773438 5.765625 -7.171875 6.859375 -7.171875 C 7.953125 -7.171875 8.878906 -6.773438 9.640625 -5.984375 C 10.410156 -5.191406 10.796875 -4.265625 10.796875 -3.203125 C 10.796875 -2.128906 10.410156 -1.210938 9.640625 -0.453125 C 8.878906 0.304688 7.953125 0.6875 6.859375 0.6875 Z M 6.859375 0.6875 "/></g></g></g></svg>